<?xml version="1.0" encoding="UTF-8"?>
<svg xmlns="http://www.w3.org/2000/svg" xmlns:xlink="http://www.w3.org/1999/xlink" width="40px" height="40px" viewBox="0 0 40 40" version="1.1">
<g id="surface1">
<path style=" stroke:none;fill-rule:evenodd;fill:rgb(32.54902%,28.627451%,23.921569%);fill-opacity:1;" d="M 5 33.75 L 5 17.5 L 7.5 17.5 L 7.5 33.75 C 7.5 34.441406 8.058594 35 8.75 35 L 31.25 35 C 31.941406 35 32.5 34.441406 32.5 33.75 L 32.5 17.5 L 35 17.5 L 35 33.75 C 35 35.820312 33.320312 37.5 31.25 37.5 L 8.75 37.5 C 6.679688 37.5 5 35.820312 5 33.75 Z M 32.5 6.25 L 32.5 15 L 27.5 10 L 27.5 6.25 C 27.5 5.558594 28.058594 5 28.75 5 L 31.25 5 C 31.941406 5 32.5 5.558594 32.5 6.25 Z M 32.5 6.25 "/>
<path style=" stroke:none;fill-rule:evenodd;fill:rgb(32.54902%,28.627451%,23.921569%);fill-opacity:1;" d="M 18.234375 3.75 C 19.207031 2.773438 20.792969 2.773438 21.765625 3.75 L 38.386719 20.363281 C 38.875 20.855469 38.875 21.644531 38.386719 22.136719 C 37.894531 22.625 37.105469 22.625 36.613281 22.136719 L 20 5.515625 L 3.386719 22.136719 C 2.894531 22.625 2.105469 22.625 1.613281 22.136719 C 1.125 21.644531 1.125 20.855469 1.613281 20.363281 Z M 18.234375 3.75 "/>
</g>
</svg>
